<svg id="visual" viewBox="0 0 900 600" width="900" height="600" xmlns="http://www.w3.org/2000/svg" xmlns:xlink="http://www.w3.org/1999/xlink" version="1.1"><rect x="0" y="0" width="900" height="600" fill="#0f2537"></rect><defs><linearGradient id="grad1_0" x1="33.3%" y1="100%" x2="100%" y2="0%"><stop offset="20%" stop-color="#c62368" stop-opacity="1"></stop><stop offset="80%" stop-color="#c62368" stop-opacity="1"></stop></linearGradient></defs><defs><linearGradient id="grad1_1" x1="33.3%" y1="100%" x2="100%" y2="0%"><stop offset="20%" stop-color="#c62368" stop-opacity="1"></stop><stop offset="80%" stop-color="#7d3479" stop-opacity="1"></stop></linearGradient></defs><defs><linearGradient id="grad1_2" x1="33.3%" y1="100%" x2="100%" y2="0%"><stop offset="20%" stop-color="#333464" stop-opacity="1"></stop><stop offset="80%" stop-color="#7d3479" stop-opacity="1"></stop></linearGradient></defs><defs><linearGradient id="grad1_3" x1="33.3%" y1="100%" x2="100%" y2="0%"><stop offset="20%" stop-color="#333464" stop-opacity="1"></stop><stop offset="80%" stop-color="#0f2537" stop-opacity="1"></stop></linearGradient></defs><defs><linearGradient id="grad2_0" x1="0%" y1="100%" x2="66.7%" y2="0%"><stop offset="20%" stop-color="#c62368" stop-opacity="1"></stop><stop offset="80%" stop-color="#c62368" stop-opacity="1"></stop></linearGradient></defs><defs><linearGradient id="grad2_1" x1="0%" y1="100%" x2="66.7%" y2="0%"><stop offset="20%" stop-color="#7d3479" stop-opacity="1"></stop><stop offset="80%" stop-color="#c62368" stop-opacity="1"></stop></linearGradient></defs><defs><linearGradient id="grad2_2" x1="0%" y1="100%" x2="66.7%" y2="0%"><stop offset="20%" stop-color="#7d3479" stop-opacity="1"></stop><stop offset="80%" stop-color="#333464" stop-opacity="1"></stop></linearGradient></defs><defs><linearGradient id="grad2_3" x1="0%" y1="100%" x2="66.7%" y2="0%"><stop offset="20%" stop-color="#0f2537" stop-opacity="1"></stop><stop offset="80%" stop-color="#333464" stop-opacity="1"></stop></linearGradient></defs><g transform="translate(900, 600)"><path d="M-432.7 0C-429.1 -59 -425.6 -117.9 -399.7 -165.6C-373.8 -213.2 -325.5 -249.6 -281.4 -281.4C-237.3 -313.2 -197.4 -340.5 -151.2 -364.9C-105 -389.4 -52.5 -411 0 -432.7L0 0Z" fill="#192e4f"></path><path d="M-324.5 0C-321.9 -44.2 -319.2 -88.4 -299.8 -124.2C-280.4 -159.9 -244.2 -187.2 -211.1 -211.1C-178 -234.9 -148 -255.4 -113.4 -273.7C-78.7 -292 -39.4 -308.3 0 -324.5L0 0Z" fill="#563773"></path><path d="M-216.3 0C-214.6 -29.5 -212.8 -59 -199.9 -82.8C-186.9 -106.6 -162.8 -124.8 -140.7 -140.7C-118.7 -156.6 -98.7 -170.2 -75.6 -182.5C-52.5 -194.7 -26.2 -205.5 0 -216.3L0 0Z" fill="#a32c75"></path><path d="M-108.2 0C-107.3 -14.7 -106.4 -29.5 -99.9 -41.4C-93.5 -53.3 -81.4 -62.4 -70.4 -70.4C-59.3 -78.3 -49.3 -85.1 -37.8 -91.2C-26.2 -97.3 -13.1 -102.8 0 -108.2L0 0Z" fill="#c62368"></path></g><g transform="translate(0, 0)"><path d="M432.7 0C424.7 56.6 416.8 113.2 395.4 163.8C374.1 214.3 339.2 258.9 299.8 299.8C260.4 340.8 216.3 378.2 165.6 399.7C114.8 421.3 57.4 427 0 432.7L0 0Z" fill="#192e4f"></path><path d="M324.5 0C318.5 42.5 312.6 84.9 296.6 122.8C280.5 160.8 254.4 194.1 224.9 224.9C195.3 255.6 162.2 283.6 124.2 299.8C86.1 316 43.1 320.2 0 324.5L0 0Z" fill="#563773"></path><path d="M216.3 0C212.4 28.3 208.4 56.6 197.7 81.9C187 107.2 169.6 129.4 149.9 149.9C130.2 170.4 108.2 189.1 82.8 199.9C57.4 210.6 28.7 213.5 0 216.3L0 0Z" fill="#a32c75"></path><path d="M108.2 0C106.2 14.2 104.2 28.3 98.9 40.9C93.5 53.6 84.8 64.7 75 75C65.1 85.2 54.1 94.5 41.4 99.9C28.7 105.3 14.4 106.7 0 108.2L0 0Z" fill="#c62368"></path></g></svg>