<svg id="visual" viewBox="0 0 960 540" width="960" height="540" xmlns="http://www.w3.org/2000/svg" xmlns:xlink="http://www.w3.org/1999/xlink" version="1.1"><rect x="0" y="0" width="960" height="540" fill="#424f5c"></rect><path d="M0 289L26.7 288.3C53.3 287.7 106.7 286.3 160 286.5C213.3 286.7 266.7 288.3 320 280.5C373.3 272.7 426.7 255.3 480 264.8C533.3 274.3 586.7 310.7 640 311.8C693.3 313 746.7 279 800 259.3C853.3 239.7 906.7 234.3 933.3 231.7L960 229L960 541L933.3 541C906.7 541 853.3 541 800 541C746.7 541 693.3 541 640 541C586.7 541 533.3 541 480 541C426.7 541 373.3 541 320 541C266.7 541 213.3 541 160 541C106.7 541 53.3 541 26.7 541L0 541Z" fill="#264967"></path><path d="M0 382L26.7 375.2C53.3 368.3 106.7 354.7 160 341.8C213.3 329 266.7 317 320 311C373.3 305 426.7 305 480 316.8C533.3 328.7 586.7 352.3 640 365C693.3 377.7 746.7 379.3 800 366C853.3 352.7 906.7 324.3 933.3 310.2L960 296L960 541L933.3 541C906.7 541 853.3 541 800 541C746.7 541 693.3 541 640 541C586.7 541 533.3 541 480 541C426.7 541 373.3 541 320 541C266.7 541 213.3 541 160 541C106.7 541 53.3 541 26.7 541L0 541Z" fill="#1a374e"></path><path d="M0 358L26.7 357.3C53.3 356.7 106.7 355.3 160 366.3C213.3 377.3 266.7 400.7 320 404C373.3 407.3 426.7 390.7 480 385.7C533.3 380.7 586.7 387.3 640 394.5C693.3 401.7 746.7 409.3 800 406.5C853.3 403.7 906.7 390.3 933.3 383.7L960 377L960 541L933.3 541C906.7 541 853.3 541 800 541C746.7 541 693.3 541 640 541C586.7 541 533.3 541 480 541C426.7 541 373.3 541 320 541C266.7 541 213.3 541 160 541C106.7 541 53.3 541 26.7 541L0 541Z" fill="#0f2537"></path><path d="M0 455L26.7 454C53.3 453 106.7 451 160 448.3C213.3 445.7 266.7 442.3 320 444C373.3 445.7 426.7 452.3 480 447.5C533.3 442.7 586.7 426.3 640 418.8C693.3 411.3 746.7 412.7 800 411.3C853.3 410 906.7 406 933.3 404L960 402L960 541L933.3 541C906.7 541 853.3 541 800 541C746.7 541 693.3 541 640 541C586.7 541 533.3 541 480 541C426.7 541 373.3 541 320 541C266.7 541 213.3 541 160 541C106.7 541 53.3 541 26.7 541L0 541Z" fill="#0e2130"></path><path d="M0 469L26.7 467.3C53.3 465.7 106.7 462.3 160 460.5C213.3 458.7 266.7 458.3 320 461.8C373.3 465.3 426.7 472.7 480 479C533.3 485.3 586.7 490.7 640 493.2C693.3 495.7 746.7 495.3 800 494.3C853.3 493.3 906.7 491.7 933.3 490.8L960 490L960 541L933.3 541C906.7 541 853.3 541 800 541C746.7 541 693.3 541 640 541C586.7 541 533.3 541 480 541C426.7 541 373.3 541 320 541C266.7 541 213.3 541 160 541C106.7 541 53.3 541 26.7 541L0 541Z" fill="#0e1d29"></path></svg>